<?xml version="1.0" encoding="UTF-8"?>
<svg version="1.1" viewBox="0 0 2048 1947" width="1280" height="1280" xmlns="http://www.w3.org/2000/svg">
<path transform="translate(930,1)" d="m0 0h105l52 3 44 4 47 6 50 8 50 10 46 11 50 14 38 12 42 15 33 13 35 15 28 13 42 21 23 13 18 10 23 14 17 11 15 10v2l-37 8-31 9-29 10-31 13-33 16-23 13-18 10-23 14-25 16-6 4-1 1 134-15 3 1-46 26-23 14-17 11-21 14-20 14-19 14-14 11-16 13-11 9-14 12-12 11-8 7-7 7-8 7-26 26-7 8-14 15-9 11-9 10-11 14-13 16-14 19-14 20-17 26-17 28-14 25-15 29-14 29-17 40-14 38v3l15-8 23-11 46-23 2 1-16 32-16 36-11 28 206-1-14-25-9-19-9-24-5-18v-3l11 3 56 20 36 13-3-21-3-27-1-23v-12l2-34 4-30 6-30 8-30 11-33 11-27 9-20 17-34 14-24 11-18 12-18 12-17 16-21 8-10 9-11 13-15 12-13 15-16 9-9 8-7 15-14 11-9 15-12 15-11 4 1 13 12 24 22 6 5 5-24 6-20 8-18 7-12h4l13 11 11 9 14 13 8 7 9 9 8 7 15 15 7 8 8 8 7 8 9 10 9 11 14 17 12 16 13 18 20 30 13 21 15 27 13 25 15 33 14 36 12 36 10 35 8 36 6 33 5 39 3 36 1 22v27l-1 1-513 1 17 14 10 8 6 5v2h481l1 1v256h-2048v-257l560-1-7-7-9-11-10-13-12-18-10-18-8-16-9-20 2-1 65 20 55 17-2-24v-67l3-34 6-37 9-36 12-36 12-28 15-30 16-27 20-30 14-19 14-18 11-13 9-11 10-11 7-8 11-12 15-16 40-40 4 2 12 11 9 9 8 7 12 12 2 1v-14l4-17 7-16 8-13 9-12 9-11 10-11 7-8 7-7 5-6h-35l-37 3-30 5-25 6-26 8-32 13-29 14-23 13-20 12-17 11-12 8-20 14-3 2 11-1 44-7 17-2h20l3 2-18 10-26 15-17 11-12 8-20 14-21 16-14 11-14 12-11 9-16 15-8 7-13 13-8 7-16 17-10 10-7 8-12 13-9 11-13 15-11 14-13 16-14 19-13 18-22 33-11 17-12 20-12 21-14 26-16 33-12 29-10 28-3 10-1 1h-309v-33l2-39 4-43 6-43 7-37 10-42 9-31 12-36 14-36 15-33 16-32 13-23 14-23 14-21 12-17 9-12 14-18 11-13 9-11 15-16 7-8 32-32 8-7 12-11 11-9 13-11 30-23 18-13 35-23 25-15 21-12 23-12 15-8 28-13 32-14 36-14 37-13 45-14 42-11 45-10 43-8 47-7 45-5 53-4zm404 223-60 5-44 6-31 6-26 7-24 8-27 12-21 12-20 14-13 11-8 7-10 9-13 13-7 8 3 1 22-7 23-5 24-3 31-2h7l-23 13-29 17-24 15-39 26-14 10-19 14-17 13-16 13-11 9-14 12-12 11-8 7-16 15-26 26-7 8-12 13-9 11-13 15-10 13-15 20-16 23-12 19-13 22-13 24-13 26-13 30-10 27-10 30-5 18 1 3 39-20 19-10 14-7-18 38-16 37-8 21h219l-6-8-14-20-13-20-13-22-14-25-5-9 18 4 113 28 3-1v-87l2-33 4-35 5-29 6-27 9-30 10-27 11-24 11-22 16-27 12-18 12-17 10-13 11-14 11-13 12-14 11-12 7-8 7-7 7-8 47-47 4 2 14 15 7 8 9 10 5 6 2-2 10-28 13-30 11-20 12-17 9-10 7-8 4-5zm-693 136m-609 564-6 3-6 7v184l5 6 4 2h60l7-5 3-4v-184l-5-6-7-3zm90 0-8 4-4 5-1 2v182l4 6 6 3h59l6-4 5-6v-182l-6-7-6-3zm92 0-7 3-6 7v184l5 6 4 2h60l8-6 3-4v-181l-4-6-6-4-3-1zm90 0-8 4-5 6v183l4 6 5 3h60l8-6 3-4v-181l-4-6-6-4-3-1zm88 0-8 4-5 6v183l4 6 5 3h60l8-6 3-4v-181l-4-6-6-4-3-1zm89 0-8 4-5 7v181l4 7 6 3h60l10-9v-183l-4-6-8-4zm91 0-8 4-5 6v183l4 6 5 3h60l8-6 3-4v-165l-20-14-16-12-2-1zm182 0-8 4-5 6v183l4 6 5 3h60l8-6 3-4v-181l-4-6-6-4-3-1zm94 0-6 3-6 7v184l5 6 4 2h60l8-6 3-5v-180l-4-6-6-4-3-1zm92 0-8 4-5 7v181l4 7 6 3h60l10-9v-172l-10-9-8-7-6-5zm198 0-3 7-9 38-7 39v4l-9-3v106l3 6 5 4 2 1h60l10-9v-183l-4-6-8-4zm76 0-8 4-5 7v181l4 6 3 3 3 1h60l10-9v-183l-4-6-8-4zm90 0-8 4-5 6v183l4 6 5 3h60l8-6 3-4v-181l-4-6-6-4-3-1zm232 0-4 5-12 23-8 20-6 20-2 11v19l-10-3-14-7-6-4h-2v108l4 6 3 3 3 1h60l10-9v-183l-4-6-8-4zm40 0-8 4-5 6v183l4 6 5 3h60l8-6 3-4v-181l-4-6-6-4-3-1zm92 0-6 3-5 5-1 2v184l5 6 4 2h60l7-5 3-4v-184l-5-6-7-3zm92 0-8 4-4 5-1 2v181l4 7 6 3h59l6-4 5-6v-182l-6-7-6-3zm95 0-8 4-5 6v183l4 6 5 3h60l8-6 3-4v-181l-4-6-6-4-3-1zm93 0-8 4-5 8v179l3 6 5 4 2 1h60l10-9v-184l-4-5-8-4zm-1229 2-6 22-5 26-2 18-23-13-32-20h-2v157l4 6 6 4h60l10-9v-183l-4-6-3-2zm668 4-3 4v184l5 6 4 2h60l7-5 3-4v-116l-12-10-10-8-11-10-8-7-19-19-7-8-8-9zm-368 25v162l4 6 5 3h60l8-6 3-4v-113l-22-12-23-13-30-20z" fill="#00A1E3"/>
<path transform="translate(1673,1432)" d="m0 0 2 2 14 38v2l-14 8v52l3 3 87 1-4-6-8-6-9-3v-19l8-5 14-5 13-2h22l14 2 10 4 5 4 2 4v7l-4 10-9 11-4 2v2l72-1 7-2 1-1-1-9-18-42-3-8v-7l5-6 46-30 2 1 14 38-1 4-11 6h-2l1 55 3 1h62l9-2 1-1v-6l-21-49-1-3v-8l6-7 25-16 15-10 6-3 13 34 2 5-1 4-13 7-1 81-5 10-9 8-8 4-7 2h-54l-12-4-8-6-6-7-2-3-4 8-7 7-8 4-4 1h-84l-11-4-9-6-6-7-2-3-6 9-10 7-12 4h-60l-12-4-10-7-6-9-6 10-7 6-10 4h-68l-2 15-6 18-7 14-7 9-8 7-5 2h-16l-20-4-55-14v-7l28-8 33-11 18-8 12-7 5-5-35-1-10-4-8-6-4-6-1-3v-46l3-9 9-10 12-5 5-1h23l14 4 11 7 8 9 5 10 2 11 52-1 8-2 1-1v-6l-13-30-9-22v-9l5-5 15-10 23-15zm-154 86-7 3-3 5 1 6 4 4 8 2h31l-2-4-12-9-12-6z" fill="#00A1E3"/>
<path transform="translate(1059,1432)" d="m0 0 2 1 14 38-1 4-11 6h-2v79l-4 11-4 5-10 7-12 4h-50l-12-4-8-6-6-7-1-4h-2l-1 4-7 8-7 5-12 4h-60l-12-4-8-6-6-7-2-3-4 8-7 7-8 4-4 1h-73l-12-4-8-6-7-8v-3h-2l-2 6-7 7-9 5-9 3-37 1v8l-5 19-9 19-7 9-5 5-6 4-4 1h-12l-17-3-60-15v-8l8-3 27-8 29-10 23-11 6-5h2v-2h-33l-11-4-8-6-5-8-1-4v-41l2-9 5-8 8-7 11-4 6-1h19l15 4 11 7 8 8 6 12 2 9 1 1h34l6-2 1-1 1-15h21l1 15 1 2 3 1h76l12-2 4-4v-6l-5-5-8-3-12-2-26-1v-45l4-6 10-5 72-18h2v34l-18 5-28 7-1 1 18 6 11 8 6 7 4 11 2 16 4 2h80l6-1 1-17h21l1 14 1 3 3 1h59l8-2 1-1v-7l-19-44-3-8v-7l5-6 20-13zm-472 87-6 3-2 4 1 6 5 4 4 1h32v-2l-12-9-11-6-4-1z" fill="#00A1E3"/>
<path transform="translate(1784,1716)" d="m0 0h157l21 3 19 5 19 8 14 9 10 9 7 10 3 9v17l-4 10-6 8-9 8-16 8-15 5v1l15 4 13 5 13 7 11 9 8 11 3 9v15l-4 12-8 11-9 8-15 9-18 8-23 6-26 3h-160zm49 28v69h103l15-3 13-5 11-7 7-8 3-8v-8l-5-10-7-7-12-7-16-5-7-1zm1 96-1 1v74h110l17-3 16-6 11-8 7-8 3-9v-7l-4-10-4-5-11-8-13-6-18-4-15-1z" fill="#00A1E3"/>
<path transform="translate(1313,1716)" d="m0 0h50v97h192v-97h50v227h-50v-103h-192v103h-50z" fill="#00A1E3"/>
<path transform="translate(1528,1224)" d="m0 0 2 1 11 57 3 6 4 2 61 1-4-6-7-6-8-2v-20l5-4 12-5 15-3h19l16 3 10 6 2 3 1 7-3 10-6 9-6 7 68 1v-11l7-14 13-15 10-8 8-3h14l9 4 8 6 8 9 8 14 5 12 1 7-15 26-9 15-3 4-25-5-27-4-2 5-8 5-5 2-7 1h-54l-12-3-10-6-6-7-3-5-4 7-7 7-10 5-10 2h-49l-14-3-10-6-7-9-5-12v-4l-5 5-13 19-3 3h-9l-11-4-9-8-4-8-1-4v-30l3-8 7-7 11-5 18-4h5l-2-13 10-7zm-30 46-9 3-6 5-1 3v9l3 5 6 3 4 1h14l1-2-5-24-3-3zm253 2-5 5v8l4 4 6 2h29l-2-4-9-8-10-6-3-1z" fill="#00A1E3"/>
<path transform="translate(551,1720)" d="m0 0h34l24 3 20 5 16 6 17 9 10 8 8 9 1 4-18 5-24 6h-2l-6-8-7-6-14-7-13-4-12-2h-33l-16 3-16 6-9 6-6 7-1 3v9l4 8 10 7 16 6 27 7 49 11 25 7 20 8 13 7 10 8 8 9 5 10 2 8v12l-4 13-7 10-10 9-14 8-14 6-20 6-25 4-12 1h-33l-25-3-20-5-19-7-17-9-12-9-11-11-9-14 3-2 42-10 8 11 7 8 12 9 15 7 17 5 12 2h31l19-3 15-5 12-7 7-8 3-9-1-10-6-9-10-7-16-7-25-7-63-14-23-7-21-10-9-7-9-9-5-10-1-4v-16l4-10 8-10 12-9 17-9 18-6 19-4z" fill="#00A1E3"/>
<path transform="translate(48,1432)" d="m0 0h1l1 103 3 2h57l6-2 1-2 1-14h20l1 1 1 14 3 3h86l28-2 12-3 6-2 1-4-5-1-26-11-14-4-12-1-9 2-3 2v6 4l-10 5-7-9-2-5v-8l5-9 11-12 9-6 8-3h13l14 4 28 10 18 4 24 2 17 1-3 9-8 19-1 1-10 2-12 6-7 7-10 16-8 14-6 7-12 6-17 3h-78l-12-4-11-8-5-8-7 9-8 6-9 4-4 1h-73l-13-4-10-7-8-9-3-9v-97l28-17z" fill="#00A1E3"/>
<path transform="translate(1293,1219)" d="m0 0 9 1 20 14 14 10 11 9 16 16 9 14 2 9-17 28-10 17h-9l-12-3-10-5-9-7-2 5-9 7-8 4-16 3h-63v9l-4 17-8 19-7 10-5 5-6 4h-17l-21-5-43-12-2-1v-7l29-9 31-12 17-9 8-6 1-2-26-1-9-2-10-6-6-9-1-3v-46l4-11 7-8 11-5 5-1h20l10 3 9 5 6 5 7 10 4 12v6h42v-10l3-12 6-9 9-7 4-1v-2l-5-2-5-5 14-15 5-6zm-9 50-7 4-4 7-1 3v7l1 1h21l5-3 1-7-6-9-3-3zm-132 3-5 5v8l4 4 6 2h29l-2-4-9-8-12-7zm170 6-1 13-1 8 12 6 6 1 2-4v-7l-4-7-7-7-5-3z" fill="#00A1E3"/>
<path transform="translate(552,1432)" d="m0 0 2 1 14 38-1 4-14 8h-4v84l-5 9-8 7-10 4h-68l-2 16-5 15-8 16-7 9-8 7-5 2h-16l-20-4-52-13-3-2v-5l7-3 31-9 28-10 19-9 11-8 1-2h-36l-10-4-8-6-4-6-1-3v-46l4-10 7-8 10-5 9-2h23l13 4 11 7 9 10 4 8 2 8v4l52-1 6-1 1-12-20-48v-8l6-7 22-14zm-153 86-7 2-3 3-1 6 2 5 6 3 5 1h31l-2-4-12-9-12-6z" fill="#00A1E3"/>
<path transform="translate(0,1716)" d="m0 0h38l1 148 3 14 7 13 10 10 12 7 16 5 18 2 21-1 14-3 12-5 11-7 9-10 5-10 3-11 1-152h39v142l-2 17-5 16-7 12-9 10-10 9-15 9-19 7-20 4-11 1h-24l-17-2-17-4-15-6-14-8-13-11-10-12-7-14-4-14-1-7z" fill="#00A1E3"/>
<path transform="translate(871,1716)" d="m0 0h265v27l-1 1h-107v199h-49v-199h-107l-1-1z" fill="#00A1E3"/>
<path transform="translate(1880,1185)" d="m0 0h1l1 102 3 3h70l22-2 11-3 5-5-28-13-13-4-8-1-11 2-2 2v6l1 3-9 6h-2l-7-12v-11l5-9 9-11 10-7 6-2h11l15 5 23 9 16 4 19 2 19 1-3 10-7 18-7 2-9 4-7 5-9 13-10 20-7 9-10 6-15 3-13 1h-76l-14-3-10-6-8-8-4-8-1-4v-98z" fill="#00A1E3"/>
<path transform="translate(351,1224)" d="m0 0 2 2 12 60 3 3 3 1 43 1v-11l6-12 8-10 7-8 11-8 6-2h14l10 4 10 9 6 7 8 14 6 16-6 11-17 29-5 7-31-6-14-2h-6l-5 6-8 4-9 2h-34l-12-3-10-6-6-7-3-4-6 9-8 6-10 4-6 1h-18l-10-2-10-5-5-5-4-5-4-10v-18l5-15 4-8h13v9l2 6 8 2 40 1-9-44 1-5 23-15zm91 48-4 3-1 3v7l6 5 4 1h29l-2-4-9-8-12-7z" fill="#00A1E3"/>
<path transform="translate(687,1238)" d="m0 0 4 2 7 11 3 9 1 26v25l-2 9-4 7-7 7-10 5-10 2h-53v9l-5 20-7 16-7 10-5 5-6 4h-17l-21-5-44-12-1-1v-7l29-9 26-10 17-8 10-7 3-1 1-3-26-1-9-2-10-6-6-9-1-3v-47l4-10 7-8 11-5 5-1h20l10 3 10 6 5 4 7 11 4 11v6h60l-2-9-6-10-9-10-4-3 1-3zm-128 34-5 5v8l4 4 6 2h29l-2-4-9-8-12-7z" fill="#00A1E3"/>
<path transform="translate(215,1238)" d="m0 0 4 2 7 11 3 9 1 10v43l-3 10-9 10-8 5-6 2-7 1h-40l-12-3-9-5v10l-2 12-6 12-7 8-14 9-13 4-13 2h-20l-18-3-13-5-11-7-9-9-6-10-3-9-1-6v-15l4-16 8-16h22l-3 9-2 7v10l4 8 9 6 9 3 6 1h25l14-3 10-5 4-5v-8l-7-9-11-13v-2l36-24 2 1 6 12 5 5 7 3 60 1-2-9-6-10-9-10-4-3 1-3z" fill="#00A1E3"/>
<path transform="translate(869,1222)" d="m0 0h46v11l-14 7-13 9-9 9-1 2 29 1 10 3 9 6 6 7 3 7v53l-4 11-8 11-11 8-12 5-9 2h-46l-18-3-13-5-10-6-9-8-7-11-3-9-1-6v-13l4-16 7-14 3-3h21l-2 6-4 11v9l4 8 6 5 10 4 11 2h50l10-3 5-4 3-7h-51l-8-3-6-5-3-6v-54l5-10 9-7z" fill="#00A1E3"/>
<path transform="translate(1215,1497)" d="m0 0h23l13 4 9 6 8 9 6 12 4 14 1 7v24l-3 19-6 21-8 16-7 11-8 8-8 4h-16l-20-4-52-13-2-1v-7l40-12 25-9 21-10 9-7 1-2h-36l-12-5-6-5-5-10v-44l4-11 7-8 10-5zm0 21-7 2-3 4v8l4 4 8 2h31l-2-4-15-11-9-4z" fill="#00A1E3"/>
<path transform="translate(1399,1487)" d="m0 0h13l11 4 9 6 8 8 9 14 7 16-1 6-15 23-13 20-15-8-15-6-14-3h-20l-6 3-3 5-1 5v16l4 43v6l-38 15-5 1v-98l4-10 7-8 10-6 10-4 17-3h28l24 3 10 1-10-9-11-6-4-1h-20l-14 4-6 2-2-3 4-8 7-9 10-10 13-7z" fill="#00A1E3"/>
<path transform="translate(991,1267)" d="m0 0 4 1 10 9 9 14 5 13 2 8 1 9v10l-3 17-6 18-8 16-6 9-9 9-10 5-8 1-17-3-30-9-18-6-1-1v-7l20-5 21-8 21-10 11-7 10-8 3-4v-7l-5-8-9-10-11-9v-3l13-19z" fill="#00A1E3"/>
<path transform="translate(1142,1432)" d="m0 0h2l15 40v2l-10 6h-2l-3 87-16 10-17 10h-2l-10-109v-11l4-8 8-7 22-14z" fill="#00A1E3"/>
<path transform="translate(1090,1185)" d="m0 0h2l13 39-1 4-9 6-2 54-1 32-11 8-16 10-5 2-9-109v-11l5-10 10-8 19-13z" fill="#00A1E3"/>
<path transform="translate(57,1597)" d="m0 0h6l14 10 4 2 16-12h6l18 14 1 4-11 9-8 6h-6l-16-12-7 4-10 8h-7l-12-10-6-4v-5l16-12z" fill="#00A1E3"/>
<path transform="translate(882,1473)" d="m0 0 7 1 14 11 4-1 14-11 7 1 17 13 1 5-19 14h-7l-12-10-4-2-16 12h-7l-16-13-2-1 1-5 14-11z" fill="#00A1E3"/>
<path transform="translate(840,1381)" d="m0 0 6 1 10 9 5 2 13-11 6-1 14 12 4 3-1 5-11 9-6 5-6-1-11-10-4-1-13 11-6 1-10-9-7-6 1-5 12-11z" fill="#00A1E3"/>
<path transform="translate(159,1350)" d="m0 0h5l14 12 5-2 11-10 7 1 9 8 7 6-1 5-11 9-5 4h-6l-14-12-6 4-10 8h-6l-11-10-5-4v-5l11-9z" fill="#00A1E3"/>
<path transform="translate(1473,1189)" d="m0 0h7l10 9 3 2 4-1 12-10h6l13 11 4 3-1 5-14 12-3 2h-5l-12-11-4-1-14 12h-5l-15-13-2-2 1-5z" fill="#00A1E3"/>
<path transform="translate(668,1473)" d="m0 0h5l20 15v4l-19 14-5 1-11-8-9-7 1-5 15-12z" fill="#00A1E3"/>
<path transform="translate(209,1597)" d="m0 0 7 1 18 14v4l-19 14h-7l-16-13-2-1 1-5 14-11z" fill="#00A1E3"/>
<path transform="translate(63,1257)" d="m0 0h5l14 12 4 3-1 5-14 11-3 3h-5l-12-11-5-4 1-5 10-9z" fill="#00A1E3"/>
<path transform="translate(649,1350)" d="m0 0h6l14 12 3 2v5l-13 11-4 3h-6l-12-11-4-3v-5l15-13z" fill="#00A1E3"/>
<path transform="translate(1933,1350)" d="m0 0 5 1 10 8 7 6-1 5-14 12-3 2-5-1-14-12-2-2 1-5 12-11z" fill="#00A1E3"/>
</svg>
